# xmcd
#
# Track frame offsets:
#	183
#	11733
#	22438
#	32855
#	44503
#	56710
#	68953
#	81868
#	89870
#	106730
#	120790
#	130495
#	143428
#	156785
#	171933
#	183430
#
# Disc length: 2621 seconds
#
# Revision: 9
# Processed by: cddbd v1.5.2PL0 Copyright (c) Steve Scherf et al.
# Submitted via: EasyCDDAExtractor 16.0.6.1
#
DISCID=e10a3b10
DTITLE=Varios - C-072 The Best Of Country and Western Vol.2
DYEAR=1900
DGENRE=Country
TTITLE0=Kenny Rogers - Poem For My Little Lady
TTITLE1=Lynn Anderson - Heaven's Just A Sin Away
TTITLE2=Freddy Fender - A Man Can Cry
TTITLE3=Donna Fargo - The Happiest Girl In The Whole USA
TTITLE4=Johnny Cash - Next In Line
TTITLE5=Dolly Parton - Two Little Orphans
TTITLE6=George Jones - When The Grass Grows Over Me
TTITLE7=Waylon Jennings - Mean Old Greyhound Bus
TTITLE8=Willie Nelson - I Let My Mind Wonder
TTITLE9=Billie Joe Spears - Mr Walker, It's All Over
TTITLE10=The Everly Brothers - I Wonder If You Care As Much
TTITLE11=Kenny Rogers - Ruby, Don't Take You're Love To Town
TTITLE12=Don Williams - Where Do We Go From Here
TTITLE13=Lynn Anderson - Desperado
TTITLE14=Oak Ridge Boys - No One Cared As Much
TTITLE15=Willie Nelson - You'll Always Have Someone
EXTD=www.timmie.dk
EXTT0=
EXTT1=
EXTT2=
EXTT3=
EXTT4=
EXTT5=
EXTT6=
EXTT7=
EXTT8=
EXTT9=
EXTT10=
EXTT11=
EXTT12=
EXTT13=
EXTT14=
EXTT15=
PLAYORDER=
